<?xml version="1.0" encoding="utf-8"?>
<!-- Generator: Adobe Illustrator 24.0.2, SVG Export Plug-In . SVG Version: 6.00 Build 0)  -->
<svg version="1.1" xmlns="http://www.w3.org/2000/svg" xmlns:xlink="http://www.w3.org/1999/xlink" x="0px" y="0px"
	 viewBox="0 0 24 24" style="enable-background:new 0 0 24 24;" xml:space="preserve">
<style type="text/css">
	.st0{fill:none;}
	.st1{fill:#ffffff;}
</style>
<g id="bounding_box">
	<rect class="st0" width="24" height="24"/>
</g>
<g id="design">
	<g>
		<path class="st1" d="M22,12c0,0.09-0.01,0.17-0.04,0.25c0,0.05-0.02,0.09-0.04,0.14c-0.05,0.12-0.12,0.23-0.21,0.32l-4,4
			C17.51,16.9,17.26,17,17,17s-0.51-0.1-0.71-0.29c-0.39-0.39-0.39-1.03,0-1.42l2.3-2.29H3c-0.55,0-1-0.45-1-1s0.45-1,1-1h15.59
			l-2.3-2.29c-0.39-0.39-0.39-1.03,0-1.42c0.39-0.39,1.03-0.39,1.42,0l4,4c0.09,0.09,0.16,0.2,0.21,0.32
			c0.02,0.05,0.04,0.09,0.04,0.14C21.99,11.83,22,11.91,22,12z"/>
	</g>
</g>
</svg>
